<?xml version="1.0" encoding="utf-8"?>
<!-- Generator: Adobe Illustrator 24.0.2, SVG Export Plug-In . SVG Version: 6.00 Build 0)  -->
<svg version="1.1" id="Capa_1" xmlns="http://www.w3.org/2000/svg" xmlns:xlink="http://www.w3.org/1999/xlink" x="0px" y="0px"
	 viewBox="0 0 800 800" style="enable-background:new 0 0 800 800;" xml:space="preserve">
<style type="text/css">
	.st0{fill:#161D28;}
	.st1{fill:#FFFFFF;}
</style>
<g>
	<path class="st0" d="M66.61,386.74c0.48-183.53,149.3-331.93,332.45-331.48c184.87,0.45,331.92,149.11,331.42,335.04
		c-0.49,181.88-150.33,329.29-334.28,328.87C214.87,718.76,66.14,568.75,66.61,386.74z M473.3,182.35c-3.55,0-6.24-0.01-8.94,0
		c-31.4,0.11-62.81,0.37-94.21,0.21c-6.8-0.04-14.2-0.18-20.29-2.74c-25.47-10.68-51.7-14.9-79.18-12.52
		c-61.71,5.34-106.4,41.79-121.94,100.03c-8.84,33.14-2.71,64.58,12.27,94.6c3.47,6.96,2.91,11.51-2.64,16.98
		c-9.79,9.64-18.06,20.73-21.02,34.45c-7.2,33.33-0.27,63.56,23.11,88.7c19.86,21.36,46.11,29.44,74.45,29.98
		c39.47,0.74,78.97,0.15,118.45,0.51c8.7,0.08,17.52,1.07,26.04,2.84c10.33,2.15,15.95,9.85,16.52,20.39
		c0.92,17.13-8.78,28.6-27.33,31.21c-6.18,0.87-8.18,3.29-8.01,9.34c0.35,12.69,0.05,25.4,0.12,38.1
		c0.11,19.94-1.93,18.45,17.9,15.34c43.83-6.88,86.59-45.56,80.09-102.59c-0.87-7.67-2.44-15.26-3.8-23.58
		c7.45,0,14.61-0.45,21.68,0.13c6.64,0.55,7.96-2.06,7.94-8.21c-0.2-72.51-0.14-145.02-0.11-217.52c0-4.15,0.01-8.33,0.46-12.45
		c2.03-18.66,14.29-29.56,33.53-30.03c19.62-0.47,31.1,8.73,34.07,27.92c1.05,6.81,1.38,13.79,1.39,20.7
		c0.1,70.2,0.06,140.4,0.06,210.6c0,8.85,0,8.86,9.12,8.86c21.01,0.01,42.03-0.26,63.04,0.16c6.64,0.13,8.5-1.69,8.48-8.41
		c-0.23-79.67-0.11-159.33-0.22-239c-0.01-8.52-0.32-17.12-1.5-25.55c-4.79-34.23-19.9-60.86-55.16-71.58
		c-14.75-4.49-29.94-5.05-45.28-3.64c-23.77,2.19-42.79,12.15-55.46,32.94c-0.65,1.07-1.53,1.99-3.62,4.67
		C473.3,201.88,473.3,192.58,473.3,182.35z"/>
	<path class="st1" d="M473.3,182.35c0,10.23,0,19.53,0,30.85c2.09-2.68,2.97-3.61,3.62-4.67c12.67-20.79,31.69-30.74,55.46-32.94
		c15.34-1.41,30.53-0.85,45.28,3.64c35.26,10.73,50.37,37.35,55.16,71.58c1.18,8.42,1.49,17.03,1.5,25.55
		c0.11,79.67-0.02,159.33,0.22,239c0.02,6.71-1.84,8.54-8.48,8.41c-21.01-0.42-42.02-0.15-63.04-0.16c-9.11,0-9.12-0.01-9.12-8.86
		c0-70.2,0.03-140.4-0.06-210.6c-0.01-6.9-0.33-13.88-1.39-20.7c-2.96-19.19-14.45-28.4-34.07-27.92
		c-19.24,0.47-31.49,11.37-33.53,30.03c-0.45,4.12-0.46,8.3-0.46,12.45c-0.02,72.51-0.09,145.02,0.11,217.52
		c0.02,6.15-1.3,8.76-7.94,8.21c-7.07-0.58-14.23-0.13-21.68-0.13c1.36,8.32,2.93,15.91,3.8,23.58
		c6.5,57.03-36.25,95.71-80.09,102.59c-19.83,3.11-17.79,4.6-17.9-15.34c-0.07-12.7,0.23-25.41-0.12-38.1
		c-0.17-6.04,1.84-8.47,8.01-9.34c18.54-2.61,28.24-14.08,27.33-31.21c-0.57-10.54-6.19-18.24-16.52-20.39
		c-8.52-1.77-17.34-2.77-26.04-2.84c-39.48-0.36-78.98,0.23-118.45-0.51c-28.34-0.53-54.59-8.61-74.45-29.98
		c-23.37-25.14-30.3-55.37-23.11-88.7c2.96-13.73,11.23-24.82,21.02-34.45c5.56-5.47,6.11-10.02,2.64-16.98
		c-14.98-30.03-21.12-61.46-12.27-94.6c15.54-58.24,60.23-94.69,121.94-100.03c27.48-2.38,53.71,1.84,79.18,12.52
		c6.09,2.55,13.49,2.7,20.29,2.74c31.4,0.17,62.8-0.1,94.21-0.21C467.05,182.34,469.75,182.35,473.3,182.35z M287.28,230.01
		c-42.49-0.07-73.79,28.85-73.58,68.99c0.23,44.96,37.39,70.91,70.19,70.32c40.08-0.72,72.51-23.99,73.26-71.8
		C357.72,260.31,325.97,230.08,287.28,230.01z M403.28,375.77c-7.52,7.98-14.14,16.34-22.05,23.19
		c-44.83,38.82-117.6,44.69-170.62,13.82c-5.98-3.48-8.66-1.8-11.34,3.35c-7.87,15.12-2.87,33.94,12.66,40.82
		c9.43,4.18,20.31,6.8,30.6,7.01c39.92,0.8,79.88-0.08,119.8,0.64c12.05,0.22,24.04,3.58,36.05,5.54c1.51,0.25,2.98,0.7,4.9,1.16
		C403.28,439.23,403.28,407.67,403.28,375.77z"/>
	<path class="st0" d="M287.28,230.01c38.68,0.07,70.44,30.3,69.86,67.5c-0.74,47.81-33.17,71.08-73.26,71.8
		c-32.8,0.59-69.96-25.35-70.19-70.32C213.49,258.86,244.8,229.94,287.28,230.01z"/>
	<path class="st0" d="M403.28,375.77c0,31.9,0,63.46,0,95.54c-1.92-0.46-3.39-0.92-4.9-1.16c-12.01-1.96-24-5.33-36.05-5.54
		c-39.93-0.72-79.88,0.16-119.8-0.64c-10.29-0.21-21.17-2.83-30.6-7.01c-15.53-6.88-20.53-25.69-12.66-40.82
		c2.68-5.15,5.36-6.84,11.34-3.35c53.02,30.87,125.79,24.99,170.62-13.82C389.14,392.11,395.76,383.75,403.28,375.77z"/>
</g>
</svg>
