<?xml version="1.0" standalone="no"?>
<!DOCTYPE svg PUBLIC "-//W3C//DTD SVG 20010904//EN"
 "http://www.w3.org/TR/2001/REC-SVG-20010904/DTD/svg10.dtd">
<svg version="1.0" xmlns="http://www.w3.org/2000/svg"
 width="700.000000pt" height="700.000000pt" viewBox="0 0 700.000000 700.000000"
 preserveAspectRatio="xMidYMid meet">
<metadata>
Created by potrace 1.11, written by Peter Selinger 2001-2013
</metadata>
<g transform="translate(0.000000,700.000000) scale(0.100000,-0.100000)"
fill="#000000" stroke="none">
<path d="M3337 6514 c-1 -1 -42 -4 -92 -8 -49 -3 -99 -8 -110 -10 -11 -2 -45
-7 -75 -11 -209 -26 -491 -105 -715 -200 -153 -65 -449 -231 -530 -297 -5 -5
-33 -26 -62 -46 -300 -220 -588 -543 -780 -877 -143 -248 -264 -555 -319 -810
-50 -236 -68 -401 -68 -645 0 -133 8 -296 18 -345 2 -11 7 -46 11 -79 8 -72
13 -102 25 -146 5 -19 11 -46 14 -60 7 -42 36 -150 62 -235 102 -330 280 -663
504 -945 105 -131 325 -353 450 -452 84 -67 313 -228 324 -228 2 0 37 -19 78
-43 142 -84 327 -166 508 -225 85 -28 177 -54 190 -54 3 0 15 -4 26 -9 12 -4
41 -11 65 -14 24 -4 46 -8 50 -10 3 -2 21 -7 40 -10 19 -3 59 -10 89 -15 55
-9 136 -18 240 -26 64 -5 333 -5 404 1 65 4 170 15 198 20 13 2 65 11 117 20
742 127 1444 579 1882 1210 231 332 398 734 466 1120 38 213 54 597 32 785
-22 205 -29 241 -70 420 -67 286 -218 649 -359 861 -22 33 -40 63 -40 65 0 8
-161 223 -209 279 -53 62 -190 203 -262 271 -203 190 -539 406 -799 514 -41
17 -84 35 -95 40 -37 18 -289 98 -350 111 -33 7 -62 13 -65 14 -17 4 -119 25
-140 29 -75 12 -100 16 -150 21 -30 3 -80 8 -110 11 -50 6 -387 13 -393 8z"/>
</g>
</svg>
